<?xml version="1.0" encoding="UTF-8" standalone="no"?>
<svg
   xmlns:dc="http://purl.org/dc/elements/1.1/"
   xmlns:cc="http://creativecommons.org/ns#"
   xmlns:rdf="http://www.w3.org/1999/02/22-rdf-syntax-ns#"
   xmlns:svg="http://www.w3.org/2000/svg"
   xmlns="http://www.w3.org/2000/svg"
   xmlns:sodipodi="http://sodipodi.sourceforge.net/DTD/sodipodi-0.dtd"
   xmlns:inkscape="http://www.inkscape.org/namespaces/inkscape"
   class="svg-icon"
   style="width: 1em; height: 1em;vertical-align: middle;fill: currentColor;overflow: hidden;"
   viewBox="0 0 1024 1024"
   version="1.1"
   id="svg8"
   sodipodi:docname="check-90.svg"
   inkscape:version="1.0.2-2 (e86c870879, 2021-01-15)">
  <metadata
     id="metadata14">
    <rdf:RDF>
      <cc:Work
         rdf:about="">
        <dc:format>image/svg+xml</dc:format>
        <dc:type
           rdf:resource="http://purl.org/dc/dcmitype/StillImage" />
      </cc:Work>
    </rdf:RDF>
  </metadata>
  <defs
     id="defs12" />
  <sodipodi:namedview
     pagecolor="#ffffff"
     bordercolor="#666666"
     borderopacity="1"
     objecttolerance="10"
     gridtolerance="10"
     guidetolerance="10"
     inkscape:pageopacity="0"
     inkscape:pageshadow="2"
     inkscape:window-width="1500"
     inkscape:window-height="975"
     id="namedview10"
     showgrid="false"
     inkscape:zoom="0.35888672"
     inkscape:cx="413.14018"
     inkscape:cy="-13.191258"
     inkscape:window-x="-7"
     inkscape:window-y="-7"
     inkscape:window-maximized="1"
     inkscape:current-layer="svg8" />
  <path
     d="M335.4 367.7c-16.2-16.2-42.4-16.2-58.6 0-16.2 16.2-16.2 42.4 0 58.6l206.8 206.8c16.4 16.1 42.7 16.1 59-0.2l372.8-372.8c16.2-16.2 16.2-42.4 0-58.6-16.2-16.2-42.4-16.2-58.6 0L513.1 545.3 335.4 367.7z"
     fill=""
     id="path2"
     style="fill:#003637;fill-opacity:1" />
  <path
     d="M886.1 637.2c-22.9 0-41.4 18.6-41.4 41.4v165.8h-663v-663h587.2c22.9 0 41.4-18.6 41.4-41.4 0-22.9-18.6-41.4-41.4-41.4H140.2c-22.9 0-41.4 18.6-41.4 41.4v745.9c0 22.9 18.6 41.4 41.4 41.4h745.9c22.9 0 41.4-18.6 41.4-41.4V678.7c0.1-22.9-18.5-41.5-41.4-41.5z"
     fill=""
     id="path4"
     style="fill:#01aaad;fill-opacity:1" />
  <path
     d="M886.1 430c22.9 0 41.4 18.6 41.4 41.4v41.4c0 22.9-18.6 41.4-41.4 41.4-22.9 0-41.4-18.6-41.4-41.4v-41.4c0-22.8 18.6-41.4 41.4-41.4z"
     fill=""
     id="path6"
     style="fill:#003637;fill-opacity:1" />
</svg>
