<svg width="32" height="32" viewBox="0 0 32 32" fill="none" xmlns="http://www.w3.org/2000/svg">
<path d="M24.0281 3.5C25.2594 3.5 26.3125 3.9375 27.1875 4.8125C28.0625 5.6875 28.5 6.74063 28.5 7.97188C28.5 9.20312 28.0625 10.2531 27.1875 11.1187L24.0469 14.2281L25.4969 15.6781C25.5906 15.7719 25.6375 15.8781 25.6375 15.9969C25.6375 16.1156 25.5906 16.225 25.4969 16.3156L22.5688 19.2437C22.475 19.3375 22.3687 19.3844 22.25 19.3844C22.1313 19.3844 22.0219 19.3375 21.9312 19.2437L20.4656 17.7781L12.05 26.1969C11.7063 26.5406 11.2875 26.7156 10.7937 26.7156H7.9625L4.39062 28.5L3.5 27.6063L5.28438 24.0344V21.2031C5.28438 20.7094 5.45625 20.2906 5.80312 19.9469L14.2188 11.5344L12.7531 10.0688C12.6594 9.975 12.6125 9.86875 12.6125 9.75C12.6125 9.63125 12.6594 9.52187 12.7531 9.43125L15.6812 6.50313C15.775 6.40938 15.8813 6.3625 16 6.3625C16.1187 6.3625 16.2281 6.40938 16.3188 6.50313L17.7687 7.95312L20.8813 4.8125C21.7469 3.9375 22.7938 3.5 24.0281 3.5ZM10.6438 24.0344L18.6781 16L16 13.3219L7.96562 21.3563V24.0344H10.6438Z" fill="white"/>
</svg>
