<svg width="46" height="46" viewBox="0 0 46 46" fill="none" xmlns="http://www.w3.org/2000/svg">
<path d="M45.4933 9.02793C45.3601 8.89461 45.202 8.78885 45.0279 8.71669C44.8538 8.64453 44.6672 8.60739 44.4788 8.60739C44.2903 8.60739 44.1037 8.64453 43.9297 8.71669C43.7556 8.78885 43.5974 8.89461 43.4642 9.02793C42.829 9.66992 42.1247 10.2396 41.364 10.7265C41.3159 10.6322 41.2571 10.5439 41.1887 10.4631L35.4495 4.72472C35.3688 4.65637 35.2805 4.59759 35.1863 4.54954C35.6732 3.78903 36.2426 3.08467 36.8843 2.44931C37.1534 2.18024 37.3046 1.8153 37.3046 1.43477C37.3046 1.05425 37.1534 0.689308 36.8843 0.420236C36.6153 0.151163 36.2503 2.7324e-09 35.8698 0C35.4893 -2.7324e-09 35.1243 0.151163 34.8553 0.420236C31.0576 4.21801 30.5309 8.31885 30.6608 12.1759C26.0711 11.8075 20.9046 11.5006 16.2035 16.2012C11.5031 20.8996 11.8123 26.0653 12.1796 30.6572C8.31981 30.5276 4.21933 31.0544 0.420737 34.852C0.151726 35.1211 0.000620722 35.486 0.000663767 35.8665C0.000706811 36.247 0.151894 36.6119 0.420967 36.8809C0.690039 37.1499 1.05495 37.301 1.43544 37.3009C1.81592 37.3009 2.1808 37.1497 2.44981 36.8806C3.08512 36.2386 3.78959 35.669 4.55032 35.1821C4.59839 35.2765 4.65717 35.3651 4.7255 35.446L10.4647 41.1844C10.5454 41.2527 10.6338 41.3115 10.7281 41.3596C10.241 42.1201 9.67134 42.8244 9.02953 43.4598C8.8963 43.593 8.79061 43.7512 8.71851 43.9253C8.64641 44.0993 8.60929 44.2859 8.60929 44.4743C8.60929 44.6628 8.64641 44.8493 8.71851 45.0234C8.79061 45.1975 8.8963 45.3556 9.02953 45.4889C9.16276 45.6221 9.32093 45.7278 9.495 45.7999C9.66908 45.872 9.85565 45.9091 10.0441 45.9091C10.2325 45.9091 10.4191 45.872 10.5931 45.7999C10.7672 45.7278 10.9254 45.6221 11.0586 45.4889C14.8579 41.6907 15.3846 37.5905 15.2545 33.7327C19.8429 34.0969 25.0097 34.4073 29.711 29.7074C34.4101 25.009 34.1025 19.8467 33.7364 15.2535C37.5956 15.3844 41.6961 14.855 45.4937 11.0566C45.627 10.9235 45.7327 10.7653 45.8048 10.5913C45.8769 10.4172 45.914 10.2306 45.914 10.0422C45.9139 9.8538 45.8768 9.66724 45.8046 9.4932C45.7324 9.31916 45.6266 9.16106 45.4933 9.02793ZM23.7268 30.3036L15.6081 22.1852C16.0084 21.1423 16.5719 20.1698 17.2776 19.304L26.6078 28.6335C25.7419 29.3392 24.7695 29.9029 23.7268 30.3036ZM28.6366 26.6047L19.3067 17.2759C20.1728 16.5702 21.1455 16.0064 22.1884 15.6057L30.3066 23.7235C29.9062 24.7663 29.3425 25.7389 28.6366 26.6047ZM7.2983 33.9617C8.92707 33.5071 10.6099 33.4475 12.381 33.5302C12.4628 35.2997 12.4031 36.983 11.9487 38.6118L7.2983 33.9617ZM15.1851 30.8479C15.1476 30.845 15.1096 30.8422 15.0721 30.8388C15.0691 30.8016 15.0661 30.7631 15.063 30.7259C14.9168 28.9088 14.7827 27.1896 14.9018 25.5364L20.3766 31.0104C18.7228 31.1301 17.003 30.9957 15.1848 30.8479H15.1851ZM30.8513 15.1813C30.9974 16.9998 31.132 18.719 31.0127 20.3722L25.5396 14.8996C27.1922 14.7802 28.912 14.9136 30.7312 15.0607C30.7679 15.0636 30.8058 15.0665 30.8428 15.0699C30.8454 15.1071 30.8483 15.1443 30.8513 15.1813ZM33.5343 12.3792C33.4523 10.6096 33.5116 8.92629 33.9659 7.29752L38.6165 11.9476C36.9872 12.4023 35.3044 12.4618 33.5343 12.3792ZM40.5948 6.75252C40.8639 7.02159 41.2288 7.17275 41.6093 7.17275C41.9899 7.17275 42.3548 7.02159 42.6239 6.75252C42.8929 6.48344 43.0441 6.1185 43.0441 5.73798C43.0441 5.35745 42.8929 4.99251 42.6239 4.72344L41.189 3.28922C41.0558 3.15599 40.8976 3.05031 40.7235 2.9782C40.5495 2.9061 40.3629 2.86899 40.1745 2.86899C39.9861 2.86899 39.7995 2.9061 39.6254 2.9782C39.4513 3.05031 39.2932 3.15599 39.1599 3.28922C39.0267 3.42245 38.921 3.58062 38.8489 3.7547C38.7768 3.92877 38.7397 4.11534 38.7397 4.30376C38.7397 4.49218 38.7768 4.67875 38.8489 4.85282C38.921 5.0269 39.0267 5.18507 39.1599 5.3183L40.5948 6.75252ZM5.31917 39.1561C5.05015 38.8871 4.68527 38.7359 4.30479 38.7358C3.92431 38.7358 3.55939 38.8869 3.29032 39.1559C3.02125 39.4249 2.87006 39.7898 2.87002 40.1703C2.86997 40.5508 3.02108 40.9157 3.29009 41.1848L4.7255 42.6194C4.99457 42.8885 5.35951 43.0397 5.74004 43.0397C6.12056 43.0397 6.4855 42.8885 6.75458 42.6194C7.02365 42.3504 7.17481 41.9854 7.17481 41.6049C7.17481 41.2244 7.02365 40.8594 6.75458 40.5904L5.31917 39.1561Z" fill="#00AAAD"/>
</svg>
