<svg width="32" height="32" viewBox="0 0 32 32" fill="none" xmlns="http://www.w3.org/2000/svg">
<g clip-path="url(#clip0)">
<path d="M27.3334 25.7933L21.3334 15.636V2.66667H24C24.3536 2.66661 24.6927 2.52611 24.9427 2.27607C25.1927 2.02603 25.3332 1.68692 25.3332 1.33333C25.3332 0.979747 25.1927 0.640639 24.9427 0.390596C24.6927 0.140554 24.3536 5.41317e-05 24 0L8.00001 0C7.64642 5.41317e-05 7.30734 0.140554 7.05733 0.390596C6.80733 0.640639 6.66688 0.979747 6.66688 1.33333C6.66688 1.68692 6.80733 2.02603 7.05733 2.27607C7.30734 2.52611 7.64642 2.66661 8.00001 2.66667H10.6667V15.636L4.72001 25.7093C4.30177 26.308 4.05543 27.0098 4.0077 27.7386C3.95997 28.4674 4.11267 29.1953 4.44925 29.8434C4.78582 30.4916 5.29342 31.0352 5.91701 31.4154C6.54059 31.7955 7.25635 31.9977 7.98668 32H24.008C24.7299 31.998 25.4377 31.8008 26.0565 31.4291C26.6753 31.0575 27.1821 30.5253 27.523 29.889C27.8638 29.2528 28.0262 28.5361 27.9928 27.8151C27.9595 27.094 27.7316 26.3954 27.3334 25.7933ZM10.648 27.096C10.648 26.7004 10.7653 26.3138 10.9851 25.9849C11.2048 25.656 11.5172 25.3996 11.8826 25.2482C12.2481 25.0969 12.6502 25.0573 13.0382 25.1344C13.4262 25.2116 13.7825 25.4021 14.0622 25.6818C14.3419 25.9615 14.5324 26.3179 14.6096 26.7058C14.6868 27.0938 14.6472 27.4959 14.4958 27.8614C14.3444 28.2268 14.0881 28.5392 13.7592 28.7589C13.4303 28.9787 13.0436 29.096 12.648 29.096C12.3853 29.0962 12.125 29.0446 11.8822 28.9441C11.6394 28.8437 11.4188 28.6964 11.2329 28.5107C11.0471 28.325 10.8996 28.1044 10.799 27.8617C10.6985 27.6189 10.6467 27.3588 10.6467 27.096H10.648ZM16.9414 23.74C16.9414 23.4763 17.0196 23.2185 17.1661 22.9992C17.3126 22.78 17.5208 22.6091 17.7644 22.5082C18.0081 22.4072 18.2762 22.3808 18.5348 22.4323C18.7934 22.4837 19.031 22.6107 19.2175 22.7972C19.404 22.9837 19.531 23.2212 19.5824 23.4799C19.6338 23.7385 19.6074 24.0066 19.5065 24.2502C19.4056 24.4939 19.2347 24.7021 19.0154 24.8486C18.7962 24.9951 18.5384 25.0733 18.2747 25.0733C18.0995 25.0735 17.926 25.0391 17.764 24.9722C17.6021 24.9053 17.455 24.8071 17.331 24.6833C17.2071 24.5595 17.1087 24.4124 17.0416 24.2506C16.9746 24.0887 16.94 23.9152 16.94 23.74H16.9414ZM22.9414 27.8493C22.9414 28.113 22.8632 28.3708 22.7167 28.5901C22.5701 28.8094 22.3619 28.9803 22.1183 29.0812C21.8746 29.1821 21.6065 29.2085 21.3479 29.157C21.0893 29.1056 20.8517 28.9786 20.6652 28.7921C20.4787 28.6057 20.3518 28.3681 20.3003 28.1095C20.2489 27.8508 20.2753 27.5827 20.3762 27.3391C20.4771 27.0955 20.648 26.8872 20.8673 26.7407C21.0865 26.5942 21.3443 26.516 21.608 26.516C21.9603 26.5181 22.2973 26.6595 22.5457 26.9093C22.794 27.1592 22.9334 27.4971 22.9334 27.8493H22.9414ZM13.1453 16.6787C13.2677 16.4734 13.3326 16.239 13.3333 16V2.66667H18.6667V7.66667H16.24C15.9748 7.66667 15.7204 7.77202 15.5329 7.95956C15.3454 8.1471 15.24 8.40145 15.24 8.66667C15.24 8.93188 15.3454 9.18624 15.5329 9.37377C15.7204 9.56131 15.9748 9.66667 16.24 9.66667H18.6667V12.3333H16.24C15.9748 12.3333 15.7204 12.4387 15.5329 12.6262C15.3454 12.8138 15.24 13.0681 15.24 13.3333C15.24 13.5985 15.3454 13.8529 15.5329 14.0404C15.7204 14.228 15.9748 14.3333 16.24 14.3333H18.6667V16C18.6666 16.2387 18.7306 16.4731 18.852 16.6787L21.3067 20.8307C21.3365 20.8813 21.3525 20.9388 21.3529 20.9976C21.3533 21.0563 21.3382 21.1141 21.3091 21.1651C21.28 21.2162 21.238 21.2586 21.1872 21.2881C21.1364 21.3177 21.0788 21.3333 21.02 21.3333H10.98C10.9213 21.3333 10.8636 21.3177 10.8128 21.2881C10.7621 21.2586 10.72 21.2162 10.6909 21.1651C10.6618 21.1141 10.6467 21.0563 10.6471 20.9976C10.6476 20.9388 10.6635 20.8813 10.6933 20.8307L13.1453 16.6787Z" fill="white"/>
</g>
<defs>
<clipPath id="clip0">
<rect width="32" height="32" fill="white"/>
</clipPath>
</defs>
</svg>
